<svg width="25" height="39" viewBox="0 0 25 39" fill="none" xmlns="http://www.w3.org/2000/svg">
<path fill-rule="evenodd" clip-rule="evenodd" d="M12.3767 -1.3718e-05C12.0121 -1.37499e-05 11.6623 0.144851 11.4045 0.402713C11.1466 0.660576 11.0017 1.01031 11.0017 1.37499L11.0017 33.8057L2.35024 25.1515C2.09205 24.8933 1.74188 24.7482 1.37674 24.7482C1.01161 24.7482 0.66143 24.8933 0.403242 25.1515C0.145053 25.4097 5.64364e-06 25.7598 5.61172e-06 26.125C5.5798e-06 26.4901 0.145053 26.8403 0.403241 27.0985L11.4032 38.0985C11.531 38.2265 11.6827 38.3281 11.8498 38.3974C12.0168 38.4668 12.1959 38.5024 12.3767 38.5024C12.5576 38.5024 12.7367 38.4668 12.9037 38.3974C13.0708 38.3281 13.2225 38.2265 13.3502 38.0985L24.3502 27.0985C24.4781 26.9706 24.5795 26.8189 24.6487 26.6518C24.7179 26.4848 24.7535 26.3058 24.7535 26.125C24.7535 25.7599 24.6084 25.4097 24.3502 25.1515C24.0921 24.8933 23.7419 24.7482 23.3767 24.7482C23.0116 24.7482 22.6614 24.8933 22.4032 25.1515L13.7517 33.8057L13.7517 1.37499C13.7517 1.01031 13.6069 0.660576 13.349 0.402713C13.0912 0.144851 12.7414 -1.36861e-05 12.3767 -1.3718e-05Z" fill="#FF6A3D"/>
</svg>
