<svg width="100" height="100" viewBox="0 0 100 100" fill="none" xmlns="http://www.w3.org/2000/svg">
<g clip-path="url(#clip0_147_203)">
<path fill-rule="evenodd" clip-rule="evenodd" d="M97.7083 24.7835C98.4 22.5085 97.7083 20.8335 94.3958 20.8335H83.4583C80.675 20.8335 79.3917 22.2793 78.6958 23.8752C78.6958 23.8752 73.1333 37.1918 65.2542 45.8418C62.7042 48.3502 61.5458 49.146 60.1542 49.146C59.4583 49.146 58.4125 48.3502 58.4125 46.071V24.7835C58.4125 22.0502 57.6458 20.8335 55.3292 20.8335H38.1292C36.3917 20.8335 35.3458 22.1002 35.3458 23.3043C35.3458 25.8918 39.2875 26.4918 39.6917 33.7752V49.6002C39.6917 53.071 39.0542 53.7002 37.6625 53.7002C33.9542 53.7002 24.9333 40.321 19.5792 25.0127C18.5417 22.0335 17.4917 20.8335 14.6958 20.8335H3.75C0.625 20.8335 0 22.2793 0 23.8752C0 26.7168 3.70833 40.8335 17.2708 59.5043C26.3125 72.2543 39.0417 79.1668 50.6375 79.1668C57.5917 79.1668 58.45 77.6335 58.45 74.9877V65.3502C58.45 62.2793 59.1083 61.6668 61.3125 61.6668C62.9375 61.6668 65.7167 62.4668 72.2083 68.6127C79.625 75.9002 80.8458 79.1668 85.0208 79.1668H95.9583C99.0833 79.1668 100.65 77.6335 99.75 74.6002C98.7583 71.5835 95.2167 67.2043 90.5208 62.0085C87.9708 59.0502 84.1458 55.8627 82.9833 54.2668C81.3625 52.221 81.825 51.3085 82.9833 49.4877C82.9833 49.4877 96.3167 31.046 97.7042 24.7835H97.7083Z" fill="#FF6A3D"/>
</g>
<defs>
<clipPath id="clip0_147_203">
<rect width="100" height="100" fill="white"/>
</clipPath>
</defs>
</svg>
