<svg width="101" height="100" viewBox="0 0 101 100" fill="none" xmlns="http://www.w3.org/2000/svg">
<g clip-path="url(#clip0_147_207)">
<path d="M98.155 27.1125C97.5887 25.0926 96.4858 23.2639 94.9633 21.8208C93.3978 20.3333 91.4791 19.2693 89.3883 18.7292C81.5633 16.6667 50.2133 16.6667 50.2133 16.6667C37.1438 16.518 24.0776 17.172 11.0883 18.625C8.99742 19.205 7.0823 20.2929 5.51329 21.7917C3.97162 23.275 2.85496 25.1042 2.27162 27.1083C0.870344 34.6573 0.189506 42.3223 0.238289 50C0.188289 57.6708 0.867456 65.3333 2.27162 72.8917C2.84246 74.8875 3.95496 76.7083 5.50079 78.1792C7.04662 79.65 8.97162 80.7125 11.0883 81.275C19.0175 83.3333 50.2133 83.3333 50.2133 83.3333C63.2994 83.4822 76.3823 82.8282 89.3883 81.375C91.4791 80.8349 93.3978 79.7708 94.9633 78.2833C96.4852 76.8405 97.5869 75.0116 98.1508 72.9917C99.5887 65.4456 100.288 57.7775 100.238 50.0958C100.346 42.3817 99.6482 34.6773 98.155 27.1083V27.1125ZM40.2466 64.2667V35.7375L66.33 50.0042L40.2466 64.2667Z" fill="#FF6A3D"/>
</g>
<defs>
<clipPath id="clip0_147_207">
<rect width="100" height="100" fill="white" transform="translate(0.238281)"/>
</clipPath>
</defs>
</svg>
