<svg width="100" height="100" viewBox="0 0 100 100" fill="none" xmlns="http://www.w3.org/2000/svg">
<g clip-path="url(#clip0_147_205)">
<path d="M84.1067 18.7167C77.7819 15.8417 71.0024 13.7167 63.9128 12.5084C63.8497 12.4962 63.7843 12.504 63.7258 12.5309C63.6673 12.5578 63.6185 12.6023 63.5862 12.6584C62.7181 14.1959 61.7508 16.2001 61.0729 17.7834C53.5538 16.651 45.9095 16.651 38.3904 17.7834C37.6353 16.0286 36.7837 14.3177 35.8398 12.6584C35.8078 12.6016 35.7594 12.5561 35.701 12.5278C35.6427 12.4995 35.5772 12.4898 35.5132 12.5001C28.4278 13.7084 21.6482 15.8334 15.3193 18.7126C15.2649 18.7356 15.2187 18.7748 15.187 18.8251C2.32246 37.8876 -1.20372 56.4792 0.528365 74.8376C0.533185 74.8825 0.547032 74.926 0.569063 74.9654C0.591094 75.0048 0.620848 75.0393 0.656515 75.0667C8.16522 80.5768 16.5402 84.7743 25.4307 87.4834C25.4927 87.5026 25.559 87.5026 25.6209 87.4832C25.6829 87.4639 25.7376 87.4262 25.778 87.375C27.6911 84.7962 29.3864 82.0602 30.8461 79.1959C30.8663 79.1567 30.878 79.1136 30.8803 79.0695C30.8826 79.0254 30.8755 78.9813 30.8594 78.9402C30.8434 78.8992 30.8187 78.862 30.7872 78.8314C30.7556 78.8007 30.7179 78.7772 30.6766 78.7625C28.0061 77.7489 25.4187 76.5257 22.938 75.1042C22.8934 75.0786 22.8559 75.0422 22.8287 74.9983C22.8015 74.9544 22.7856 74.9044 22.7823 74.8528C22.779 74.8012 22.7885 74.7495 22.8099 74.7025C22.8313 74.6555 22.864 74.6145 22.9049 74.5834C23.4258 74.1959 23.9467 73.7917 24.4427 73.3876C24.4874 73.3512 24.5412 73.3281 24.5981 73.3207C24.655 73.3134 24.7129 73.3221 24.7652 73.3459C40.9988 80.6959 58.5801 80.6959 74.6236 73.3459C74.6761 73.3207 74.7345 73.3108 74.7923 73.3174C74.85 73.3241 74.9047 73.3469 74.9502 73.3834C75.4463 73.7917 75.963 74.1959 76.488 74.5834C76.5294 74.6139 76.5626 74.6543 76.5847 74.7009C76.6067 74.7475 76.617 74.7989 76.6146 74.8505C76.6121 74.9021 76.597 74.9523 76.5706 74.9966C76.5442 75.0408 76.5073 75.0778 76.4632 75.1042C73.9912 76.5375 71.4199 77.7501 68.7205 78.7584C68.679 78.7736 68.6413 78.7975 68.6097 78.8285C68.5781 78.8596 68.5535 78.8971 68.5375 78.9385C68.5214 78.9799 68.5144 79.0242 68.5167 79.0686C68.519 79.113 68.5307 79.1564 68.551 79.1959C70.0392 82.0584 71.7423 84.7834 73.615 87.3709C73.6539 87.424 73.7082 87.4637 73.7703 87.4846C73.8324 87.5054 73.8995 87.5065 73.9622 87.4875C82.868 84.786 91.2566 80.5866 98.7736 75.0667C98.8103 75.0409 98.8411 75.0074 98.8639 74.9686C98.8867 74.9298 98.901 74.8866 98.9059 74.8417C100.973 53.6167 95.4417 35.1751 84.2349 18.8334C84.2074 18.7803 84.1619 18.7389 84.1067 18.7167ZM33.2727 63.6584C28.3864 63.6584 24.3559 59.2042 24.3559 53.7417C24.3559 48.275 28.3079 43.825 33.2727 43.825C38.2746 43.825 42.2679 48.3125 42.1894 53.7417C42.1894 59.2084 38.2374 63.6584 33.2727 63.6584V63.6584ZM66.2402 63.6584C61.3498 63.6584 57.3234 59.2042 57.3234 53.7417C57.3234 48.275 61.2713 43.825 66.2402 43.825C71.2421 43.825 75.2355 48.3125 75.1569 53.7417C75.1569 59.2084 71.2463 63.6584 66.2402 63.6584V63.6584Z" fill="#FF6A3D"/>
</g>
<defs>
<clipPath id="clip0_147_205">
<rect width="99.2126" height="100" fill="white" transform="translate(0.119141)"/>
</clipPath>
</defs>
</svg>
