<svg width="45" height="45" viewBox="0 0 45 45" fill="none" xmlns="http://www.w3.org/2000/svg">
<path fill-rule="evenodd" clip-rule="evenodd" d="M38.562 8.56194C38.7015 8.42248 38.8121 8.25691 38.8876 8.07469C38.963 7.89247 39.0019 7.69717 39.0019 7.49994C39.0019 7.30271 38.963 7.10741 38.8876 6.92519C38.8121 6.74297 38.7015 6.57741 38.562 6.43794C38.4225 6.29848 38.257 6.18785 38.0748 6.11237C37.8925 6.03689 37.6972 5.99805 37.5 5.99805C37.3028 5.99805 37.1075 6.03689 36.9253 6.11237C36.743 6.18785 36.5775 6.29848 36.438 6.43794L22.5 20.3789L8.562 6.43794C8.42254 6.29848 8.25697 6.18785 8.07475 6.11237C7.89253 6.03689 7.69723 5.99805 7.5 5.99805C7.30277 5.99805 7.10747 6.03689 6.92525 6.11237C6.74303 6.18785 6.57747 6.29848 6.438 6.43794C6.29854 6.57741 6.18791 6.74297 6.11243 6.92519C6.03696 7.10741 5.99811 7.30271 5.99811 7.49994C5.99811 7.69717 6.03696 7.89247 6.11243 8.07469C6.18791 8.25691 6.29854 8.42248 6.438 8.56194L20.379 22.4999L6.438 36.4379C6.15634 36.7196 5.99811 37.1016 5.99811 37.4999C5.99811 37.8983 6.15634 38.2803 6.438 38.5619C6.71966 38.8436 7.10168 39.0018 7.5 39.0018C7.89833 39.0018 8.28034 38.8436 8.562 38.5619L22.5 24.6209L36.438 38.5619C36.7197 38.8436 37.1017 39.0018 37.5 39.0018C37.8983 39.0018 38.2803 38.8436 38.562 38.5619C38.8437 38.2803 39.0019 37.8983 39.0019 37.4999C39.0019 37.1016 38.8437 36.7196 38.562 36.4379L24.621 22.4999L38.562 8.56194V8.56194Z" fill="white"/>
</svg>
