<svg width="28" height="28" viewBox="0 0 28 28" fill="none" xmlns="http://www.w3.org/2000/svg">
<g clip-path="url(#clip0_34_199)">
<path d="M23.7032 5.24068C21.9182 4.43568 20.0048 3.84068 18.004 3.50234C17.9862 3.49892 17.9677 3.50113 17.9512 3.50865C17.9347 3.51618 17.921 3.52865 17.9118 3.54434C17.6668 3.97484 17.3938 4.53601 17.2025 4.97934C15.0805 4.66229 12.9231 4.66229 10.801 4.97934C10.5879 4.48801 10.3476 4.00894 10.0812 3.54434C10.0721 3.52846 10.0585 3.5157 10.042 3.50778C10.0256 3.49986 10.0071 3.49715 9.98901 3.50001C7.98935 3.83834 6.07601 4.43334 4.28985 5.23951C4.27448 5.24596 4.26145 5.25695 4.25251 5.27101C0.621845 10.6085 -0.373322 15.8142 0.115511 20.9545C0.116872 20.9671 0.12078 20.9793 0.126997 20.9903C0.133215 21.0013 0.141612 21.011 0.151678 21.0187C2.2708 22.5615 4.6344 23.7368 7.14351 24.4953C7.161 24.5007 7.17971 24.5007 7.19719 24.4953C7.21468 24.4899 7.23012 24.4793 7.24151 24.465C7.78144 23.7429 8.25989 22.9769 8.67185 22.1748C8.67756 22.1639 8.68086 22.1518 8.68151 22.1395C8.68216 22.1271 8.68015 22.1148 8.67561 22.1033C8.67108 22.0918 8.66412 22.0814 8.65522 22.0728C8.64632 22.0642 8.63567 22.0576 8.62401 22.0535C7.87035 21.7697 7.14011 21.4272 6.44001 21.0292C6.42743 21.022 6.41683 21.0118 6.40916 20.9995C6.40149 20.9872 6.39699 20.9732 6.39607 20.9588C6.39514 20.9443 6.39782 20.9299 6.40386 20.9167C6.4099 20.9035 6.41912 20.8921 6.43068 20.8833C6.57768 20.7748 6.72468 20.6617 6.86468 20.5485C6.87728 20.5383 6.89246 20.5319 6.90853 20.5298C6.92459 20.5277 6.94092 20.5302 6.95568 20.5368C11.5372 22.5948 16.499 22.5948 21.0268 20.5368C21.0416 20.5298 21.0581 20.527 21.0744 20.5289C21.0907 20.5307 21.1062 20.5371 21.119 20.5473C21.259 20.6617 21.4048 20.7748 21.553 20.8833C21.5647 20.8919 21.5741 20.9032 21.5803 20.9162C21.5865 20.9293 21.5894 20.9437 21.5887 20.9581C21.588 20.9726 21.5838 20.9866 21.5763 20.999C21.5689 21.0114 21.5584 21.0218 21.546 21.0292C20.8483 21.4305 20.1227 21.77 19.3608 22.0523C19.3491 22.0566 19.3385 22.0633 19.3296 22.072C19.3207 22.0807 19.3137 22.0912 19.3092 22.1028C19.3047 22.1144 19.3027 22.1268 19.3033 22.1392C19.304 22.1516 19.3073 22.1638 19.313 22.1748C19.733 22.9763 20.2137 23.7393 20.7422 24.4638C20.7532 24.4787 20.7685 24.4898 20.786 24.4957C20.8036 24.5015 20.8225 24.5018 20.8402 24.4965C23.3536 23.7401 25.7211 22.5642 27.8425 21.0187C27.8529 21.0114 27.8615 21.0021 27.868 20.9912C27.8744 20.9803 27.8785 20.9682 27.8798 20.9557C28.4632 15.0127 26.9022 9.84901 23.7393 5.27334C23.7316 5.25847 23.7188 5.24688 23.7032 5.24068ZM9.35668 17.8243C7.97768 17.8243 6.84018 16.5772 6.84018 15.0477C6.84018 13.517 7.95551 12.271 9.35668 12.271C10.7683 12.271 11.8953 13.5275 11.8732 15.0477C11.8732 16.5783 10.7578 17.8243 9.35668 17.8243V17.8243ZM18.6608 17.8243C17.2807 17.8243 16.1443 16.5772 16.1443 15.0477C16.1443 13.517 17.2585 12.271 18.6608 12.271C20.0725 12.271 21.1995 13.5275 21.1773 15.0477C21.1773 16.5783 20.0737 17.8243 18.6608 17.8243V17.8243Z" fill="white"/>
</g>
<defs>
<clipPath id="clip0_34_199">
<rect width="28" height="28" fill="white"/>
</clipPath>
</defs>
</svg>
