<svg width="29" height="30" viewBox="0 0 29 30" fill="none" xmlns="http://www.w3.org/2000/svg">
<path d="M13.6504 4.6748H15.3496C15.5007 4.6748 15.5762 4.75033 15.5762 4.90137V24.8389C15.5762 24.9899 15.5007 25.0654 15.3496 25.0654H13.6504C13.4993 25.0654 13.4238 24.9899 13.4238 24.8389V4.90137C13.4238 4.75033 13.4993 4.6748 13.6504 4.6748Z" fill="white"/>
<path d="M4.98438 13.7939H24.0156C24.1667 13.7939 24.2422 13.8695 24.2422 14.0205V15.7197C24.2422 15.8708 24.1667 15.9463 24.0156 15.9463H4.98438C4.83333 15.9463 4.75781 15.8708 4.75781 15.7197V14.0205C4.75781 13.8695 4.83333 13.7939 4.98438 13.7939Z" fill="white"/>
</svg>
