<svg width="28" height="28" viewBox="0 0 28 28" fill="none" xmlns="http://www.w3.org/2000/svg">
<path d="M7.875 8.75C7.875 10.3745 8.52031 11.9324 9.66897 13.081C10.8176 14.2297 12.3755 14.875 14 14.875C15.6245 14.875 17.1824 14.2297 18.331 13.081C19.4797 11.9324 20.125 10.3745 20.125 8.75C20.125 7.12555 19.4797 5.56763 18.331 4.41897C17.1824 3.27031 15.6245 2.625 14 2.625C12.3755 2.625 10.8176 3.27031 9.66897 4.41897C8.52031 5.56763 7.875 7.12555 7.875 8.75V8.75ZM22.75 25.375H4.375C4.14294 25.375 3.92038 25.2828 3.75628 25.1187C3.59219 24.9546 3.5 24.7321 3.5 24.5V21.875C3.5 20.7147 3.96094 19.6019 4.78141 18.7814C5.60188 17.9609 6.71468 17.5 7.875 17.5H20.125C21.2853 17.5 22.3981 17.9609 23.2186 18.7814C24.0391 19.6019 24.5 20.7147 24.5 21.875V24.5C24.5 24.7321 24.4078 24.9546 24.2437 25.1187C24.0796 25.2828 23.8571 25.375 23.625 25.375H22.75Z" fill="#FFC4B2"/>
</svg>
