<svg width="28" height="28" viewBox="0 0 28 28" fill="none" xmlns="http://www.w3.org/2000/svg">
<g clip-path="url(#clip0_34_197)">
<path fill-rule="evenodd" clip-rule="evenodd" d="M27.3583 6.93931C27.552 6.30231 27.3583 5.83331 26.4308 5.83331H23.3683C22.589 5.83331 22.2297 6.23815 22.0348 6.68498C22.0348 6.68498 20.4773 10.4136 18.2712 12.8356C17.5572 13.538 17.2328 13.7608 16.8432 13.7608C16.6483 13.7608 16.3555 13.538 16.3555 12.8998V6.93931C16.3555 6.17398 16.1408 5.83331 15.4922 5.83331H10.6762C10.1897 5.83331 9.89683 6.18798 9.89683 6.52515C9.89683 7.24965 11.0005 7.41765 11.1137 9.45698V13.888C11.1137 14.8598 10.9352 15.036 10.5455 15.036C9.50717 15.036 6.98133 11.2898 5.48217 7.00348C5.19167 6.16931 4.89767 5.83331 4.11483 5.83331H1.05C0.175 5.83331 0 6.23815 0 6.68498C0 7.48065 1.03833 11.4333 4.83583 16.6611C7.3675 20.2311 10.9317 22.1666 14.1785 22.1666C16.1257 22.1666 16.366 21.7373 16.366 20.9965V18.298C16.366 17.4381 16.5503 17.2666 17.1675 17.2666C17.6225 17.2666 18.4007 17.4906 20.2183 19.2115C22.295 21.252 22.6368 22.1666 23.8058 22.1666H26.8683C27.7433 22.1666 28.182 21.7373 27.93 20.888C27.6523 20.0433 26.6607 18.8171 25.3458 17.3623C24.6318 16.534 23.5608 15.6415 23.2353 15.1946C22.7815 14.6218 22.911 14.3663 23.2353 13.8565C23.2353 13.8565 26.9687 8.69281 27.3572 6.93931H27.3583Z" fill="white"/>
</g>
<defs>
<clipPath id="clip0_34_197">
<rect width="28" height="28" fill="white"/>
</clipPath>
</defs>
</svg>
