<svg width="28" height="28" viewBox="0 0 28 28" fill="none" xmlns="http://www.w3.org/2000/svg">
<g clip-path="url(#clip0_34_201)">
<path d="M27.4167 7.59151C27.2581 7.02594 26.9493 6.51391 26.523 6.10984C26.0847 5.69334 25.5474 5.39542 24.962 5.24417C22.771 4.66667 13.993 4.66667 13.993 4.66667C10.3335 4.62504 6.67499 4.80816 3.03799 5.21501C2.45254 5.37742 1.91631 5.68201 1.47699 6.10167C1.04532 6.51701 0.732654 7.02917 0.569321 7.59034C0.176963 9.70404 -0.0136717 11.8502 -1.23748e-05 14C-0.0140124 16.1478 0.176154 18.2933 0.569321 20.4097C0.729154 20.9685 1.04065 21.4783 1.47349 21.8902C1.90632 22.302 2.44532 22.5995 3.03799 22.757C5.25815 23.3333 13.993 23.3333 13.993 23.3333C17.6571 23.375 21.3203 23.1919 24.962 22.785C25.5474 22.6338 26.0847 22.3358 26.523 21.9193C26.9491 21.5154 27.2576 21.0032 27.4155 20.4377C27.8181 18.3248 28.0138 16.1777 28 14.0268C28.0303 11.8669 27.8348 9.70967 27.4167 7.59034V7.59151ZM11.2023 17.9947V10.0065L18.5057 14.0012L11.2023 17.9947Z" fill="white"/>
</g>
<defs>
<clipPath id="clip0_34_201">
<rect width="28" height="28" fill="white"/>
</clipPath>
</defs>
</svg>
